HIERARCHY
ROOT Hips
{
	OFFSET 0.000000 0.000000 0.000000
	CHANNELS 6 Xposition Yposition Zposition Zrotation Yrotation Xrotation 
	JOINT LHipJoint
	{
		OFFSET 0.000000 0.000000 0.000000
		CHANNELS 3 Zrotation Yrotation Xrotation
		JOINT LeftUpLeg
		{
			OFFSET 8.178360 -10.767780 5.035740
			CHANNELS 3 Zrotation Yrotation Xrotation
			JOINT LeftLeg
			{
				OFFSET 14.688660 -40.356780 0.000000
				CHANNELS 3 Zrotation Yrotation Xrotation
				JOINT LeftFoot
				{
					OFFSET 15.373200 -42.237540 0.000000
					CHANNELS 3 Zrotation Yrotation Xrotation
					JOINT LeftToeBase
					{
						OFFSET 0.945840 -2.598660 13.935300
						CHANNELS 3 Zrotation Yrotation Xrotation
						End Site
						{
							OFFSET 0.000000 0.000000 0.000000
						}
					}
				}
			}
		}
	}
	JOINT RHipJoint
	{
		OFFSET 0.000000 0.000000 0.000000
		CHANNELS 3 Zrotation Yrotation Xrotation
		JOINT RightUpLeg
		{
			OFFSET -7.833120 -10.767780 5.035740
			CHANNELS 3 Zrotation Yrotation Xrotation
			JOINT RightLeg
			{
				OFFSET -15.255180 -41.913300 0.000000
				CHANNELS 3 Zrotation Yrotation Xrotation
				JOINT RightFoot
				{
					OFFSET -15.409560 -42.337380 0.000000
					CHANNELS 3 Zrotation Yrotation Xrotation
					JOINT RightToeBase
					{
						OFFSET -0.988380 -2.715540 14.178900
						CHANNELS 3 Zrotation Yrotation Xrotation
						End Site
						{
							OFFSET 0.000000 0.000000 0.000000
						}
					}
				}
			}
		}
	}
	JOINT LowerBack
	{
		OFFSET 0.000000 0.000000 0.000000
		CHANNELS 3 Zrotation Yrotation Xrotation
		JOINT Spine
		{
			OFFSET 0.169620 12.213540 -1.160280
			CHANNELS 3 Zrotation Yrotation Xrotation
			JOINT Spine1
			{
				OFFSET 0.340320 12.293100 -0.256500
				CHANNELS 3 Zrotation Yrotation Xrotation
				JOINT Neck
				{
					OFFSET 0.000000 0.000000 0.000000
					CHANNELS 3 Zrotation Yrotation Xrotation
					JOINT Neck1
					{
						OFFSET -0.325020 10.477440 1.032120
						CHANNELS 3 Zrotation Yrotation Xrotation
						JOINT Head
						{
							OFFSET 0.624420 10.568160 -0.743820
							CHANNELS 3 Zrotation Yrotation Xrotation
							End Site
							{
								OFFSET 0.000000 0.000000 0.000000
							}
						}
					}
				}
				JOINT LeftShoulder
				{
					OFFSET 0.000000 0.000000 0.000000
					CHANNELS 3 Zrotation Yrotation Xrotation
					JOINT LeftArm
					{
						OFFSET 20.174460 7.205340 -1.867260
						CHANNELS 3 Zrotation Yrotation Xrotation
						JOINT LeftForeArm
						{
							OFFSET 29.898000 -0.000000 -0.000000
							CHANNELS 3 Zrotation Yrotation Xrotation
							JOINT LeftHand
							{
								OFFSET 20.901360 -0.000000 -0.000000
								CHANNELS 3 Zrotation Yrotation Xrotation
								JOINT LeftFingerBase
								{
									OFFSET 0.000000 0.000000 0.000000
									CHANNELS 3 Zrotation Yrotation Xrotation
									JOINT LeftHandIndex1
									{
										OFFSET 4.291560 -0.000000 -0.000000
										CHANNELS 3 Zrotation Yrotation Xrotation
										End Site
										{
											OFFSET 0.000000 0.000000 0.000000
										}
									}
								}
								JOINT LThumb
								{
									OFFSET 0.000000 0.000000 0.000000
									CHANNELS 3 Zrotation Yrotation Xrotation
									End Site
									{
										OFFSET 0.000000 0.000000 0.000000
									}
								}
							}
						}
					}
				}
				JOINT RightShoulder
				{
					OFFSET 0.000000 0.000000 0.000000
					CHANNELS 3 Zrotation Yrotation Xrotation
					JOINT RightArm
					{
						OFFSET -18.819600 8.244300 -2.427900
						CHANNELS 3 Zrotation Yrotation Xrotation
						JOINT RightForeArm
						{
							OFFSET -31.451400 -0.000000 -0.000000
							CHANNELS 3 Zrotation Yrotation Xrotation
							JOINT RightHand
							{
								OFFSET -20.665020 -0.000000 -0.000000
								CHANNELS 3 Zrotation Yrotation Xrotation
								JOINT RightFingerBase
								{
									OFFSET 0.000000 0.000000 0.000000
									CHANNELS 3 Zrotation Yrotation Xrotation
									JOINT RightHandIndex1
									{
										OFFSET -3.735180 -0.000000 -0.000000
										CHANNELS 3 Zrotation Yrotation Xrotation
										End Site
										{
											OFFSET 0.000000 0.000000 0.000000
										}
									}
								}
								JOINT RThumb
								{
									OFFSET 0.000000 0.000000 0.000000
									CHANNELS 3 Zrotation Yrotation Xrotation
									End Site
									{
										OFFSET 0.000000 0.000000 0.000000
									}
								}
							}
						}
					}
				}
			}
		}
	}
}
MOTION
Frames:	7
Frame Time:	0.0333333
-89.085624 107.409150 60.365826 1.071391 -32.924826 0.483102 -2.977972 1.069215 1.986870 -14.711866 -8.173373 -14.507890 0.380726 8.116019 24.334427 0.385413 -3.442724 3.058715 0.007900 -0.573200 -1.575000 0.709495 -1.128548 1.137905 23.241731 3.378582 -15.481393 -2.328524 -9.808207 29.777019 0.873156 -5.864640 -3.870789 -0.208700 -2.941300 8.115200 1.803592 1.683598 10.400790 1.069179 2.534329 1.078637 -2.319112 1.277135 -5.627499 -8.855293 2.001389 -19.408478 0.876819 4.925353 26.132230 3.087800 0.394300 16.576100 -6.214576 -1.806563 -1.455155 -84.336502 -2.729079 22.678496 17.050152 -23.707715 -4.266205 -1.277636 -2.237557 5.717976 19.920632 22.427583 9.126600 -7.125000 0.000000 0.000000 -9.285400 56.027200 -2.527200 5.302534 1.040127 -1.380911 86.125493 -3.774621 13.498096 -17.665835 25.841806 -4.307464 0.259517 -0.102802 6.356290 -12.513968 7.778700 -1.774000 7.125000 0.000000 0.000000 10.193200 -21.979900 5.726200 
-89.093424 107.542356 59.428614 1.142281 -31.046819 0.699775 -2.914505 0.987503 1.786763 -14.196890 -9.792551 -15.405500 0.579657 8.489601 25.461116 0.491425 -4.481330 3.061627 0.203300 -2.903300 -8.009600 0.735604 -1.105748 1.161057 23.276862 2.085395 -16.565887 -2.273545 -9.709335 29.444508 0.867856 -5.793126 -3.152751 -0.191800 -2.820500 7.779500 2.482822 2.131181 10.916856 0.977631 3.218387 1.284960 -3.027464 1.635487 -5.451677 -8.278317 4.849503 -19.313822 0.362965 9.015387 27.784086 3.423500 1.869500 17.125600 -6.126263 -2.024580 -1.401811 -84.667005 -3.663612 22.443137 17.735859 -24.566496 -4.616533 -1.196289 -2.256321 4.832550 19.646343 22.228015 8.910800 -7.125000 0.000000 0.000000 -9.533700 55.759700 -2.533600 5.322912 0.903781 -1.414889 86.204315 -3.732981 12.947253 -17.820334 26.073142 -4.387181 0.245952 -0.137251 6.603134 -12.338471 8.820709 -1.985300 7.125000 0.000000 0.000000 10.274400 -20.902500 6.028600 
-88.957224 107.418756 58.473408 0.678133 -29.843789 1.138624 -2.812279 0.908005 1.595325 -13.064931 -11.217871 -16.417629 0.912079 9.061365 27.191932 0.661183 -5.967837 2.127239 0.273700 -3.365200 -9.297100 0.733661 -1.079517 1.169290 23.841005 0.960653 -17.694858 -2.248580 -9.657218 29.288326 0.804429 -5.468058 -2.808810 -0.139500 -2.407400 6.633100 3.657164 2.815085 11.572883 0.987757 4.297483 1.511409 -3.918051 2.183286 -5.281279 -7.142447 7.991984 -19.194122 0.081072 13.421776 29.815377 3.823000 3.513600 17.977800 -6.028749 -2.245944 -1.336073 -84.805536 -4.366617 23.189761 18.193937 -25.129103 -4.863066 -1.149348 -2.302254 3.380089 19.857473 22.280758 9.037200 -7.125000 0.000000 0.000000 -9.332800 55.876400 -2.506000 5.350035 0.745157 -1.452938 86.093866 -3.973258 12.883662 -18.369602 26.801696 -4.659729 0.242804 -0.110502 6.506595 -12.225806 8.213826 -1.827700 7.125000 0.000000 0.000000 10.389600 -21.543700 5.944900 
-88.765224 107.636556 57.556602 0.711376 -29.529476 0.939561 -2.645833 0.853619 1.464586 -12.785014 -11.533172 -17.261540 1.661696 10.219235 30.844073 0.762587 -6.828440 0.366151 0.610000 -4.999100 -13.906100 0.717913 -1.073742 1.172720 23.917775 -0.202424 -18.075903 -2.113828 -9.400191 28.494597 0.629805 -4.545809 -1.727559 -0.100600 -2.044900 5.629900 4.369380 3.804163 12.323809 0.837663 5.714474 1.824184 -4.907163 2.915141 -5.013150 -6.145291 10.787906 -17.969232 -0.032965 17.329021 31.374136 4.188600 5.039400 18.328200 -5.980565 -2.381901 -1.278377 -84.824369 -4.381273 24.318313 18.533442 -25.567236 -5.055481 -1.289186 -2.202951 1.305647 22.805931 20.438430 9.756000 -7.125000 0.000000 0.000000 -5.242600 54.460300 -1.221200 5.345988 0.602605 -1.450692 85.611290 -4.062088 14.146642 -18.621023 27.131326 -4.788200 0.257551 -0.082505 5.345249 -12.442547 7.595572 -1.718700 7.125000 0.000000 0.000000 10.258700 -22.182600 5.716000 
-88.541418 107.878356 56.761596 0.634809 -29.581257 0.749283 -2.443345 0.877101 1.383764 -12.582760 -12.227682 -17.368966 2.772514 11.663424 35.740855 0.725426 -6.729608 -0.628755 0.846000 -5.866700 -16.398000 0.688443 -1.088043 1.172377 24.086468 -0.986452 -18.087030 -1.960228 -9.104523 27.587325 0.453853 -3.609593 -0.704051 -0.279800 -3.402300 9.400900 5.040468 4.766448 12.670486 0.655710 7.081675 2.128719 -5.841426 3.622742 -4.476746 -5.876927 12.616969 -16.561669 0.215551 19.967242 32.310839 4.599700 6.110500 18.210900 -5.988008 -2.444464 -1.220266 -84.230503 -4.688084 24.593953 18.530373 -25.580008 -5.059479 -1.198922 -2.270128 0.292908 21.996632 20.913427 9.572000 -7.125000 0.000000 0.000000 -6.323200 54.834400 -1.531900 5.323152 0.537066 -1.426996 85.097744 -3.915760 14.563099 -18.639322 27.221976 -4.821311 0.210460 -0.096783 6.228481 -11.148837 8.021290 -1.620800 7.125000 0.000000 0.000000 11.198500 -21.784600 6.362500 
-88.204818 108.201756 55.974390 0.629496 -29.595286 0.525271 -2.245507 0.940864 1.320221 -12.529873 -13.692618 -16.936977 4.191069 13.163020 41.376856 0.623004 -6.672189 -0.476260 0.782500 -5.647400 -15.764600 0.665160 -1.130031 1.190520 24.242674 -2.068083 -18.028757 -1.725105 -8.654094 26.181111 0.369038 -3.147175 0.258521 -0.352000 -3.811900 10.548100 5.501028 5.521639 13.024981 0.458307 8.150698 2.212273 -6.678247 4.175412 -4.311511 -5.329897 14.210653 -15.750155 1.028936 22.380867 34.581335 5.277500 7.004900 19.130500 -5.996883 -2.433191 -1.217466 -83.906566 -3.562363 23.433910 18.529158 -25.643398 -5.058490 -1.156374 -2.339698 0.759889 21.361251 21.978413 9.680300 -7.125000 0.000000 0.000000 -7.494700 55.882100 -2.009000 5.303497 0.439637 -1.424294 84.560510 -3.860177 14.850243 -18.573685 27.186214 -4.806896 0.167486 -0.100353 7.326252 -9.989525 8.046865 -1.451500 7.125000 0.000000 0.000000 12.057500 -21.792000 6.869700 
-87.688812 108.468762 55.228590 0.732939 -29.680896 0.283485 -2.084776 1.032517 1.309430 -12.723852 -15.166887 -16.002276 5.594190 14.361675 46.514571 0.545967 -7.812870 1.300689 0.300200 -3.522600 -9.737400 0.650858 -1.173206 1.199684 24.231481 -2.856121 -17.964382 -1.500830 -8.205234 24.774003 0.345524 -3.042854 1.534389 -0.426200 -4.190100 11.612000 5.976511 6.192808 13.254638 0.178780 9.112837 2.264416 -7.632148 4.676395 -4.103795 -5.306035 15.130156 -14.671764 1.543540 23.751129 35.385633 5.642700 7.589000 19.049300 -6.046024 -2.359370 -1.222532 -83.320076 -2.263610 22.116351 18.201150 -25.301464 -4.879319 -1.182192 -2.305940 1.355361 21.391203 21.770928 9.611000 -7.125000 0.000000 0.000000 -7.369300 55.652100 -1.934000 5.252334 0.377545 -1.413488 84.191440 -3.876870 15.144331 -18.814089 27.512227 -4.926301 0.202544 -0.090611 5.755980 -10.812540 7.891752 -1.544700 7.125000 0.000000 0.000000 11.454700 -21.928500 6.475600 
